<?xml version="1.0" standalone="no"?>
<!DOCTYPE svg PUBLIC "-//W3C//DTD SVG 20010904//EN"
 "http://www.w3.org/TR/2001/REC-SVG-20010904/DTD/svg10.dtd">
<svg version="1.0" xmlns="http://www.w3.org/2000/svg"
 width="90.000000pt" height="63.000000pt" viewBox="0 0 90.000000 63.000000"
 preserveAspectRatio="xMidYMid meet">

<g transform="translate(0.000000,63.000000) scale(0.100000,-0.100000)"
fill="#042c2e" stroke="none">
<path d="M0 315 l0 -315 450 0 450 0 0 315 0 315 -450 0 -450 0 0 -315z m301
215 l24 -19 -27 -1 c-16 0 -37 -9 -48 -20 -19 -19 -20 -33 -20 -210 l0 -190
-50 0 -50 0 0 198 c0 212 4 232 54 252 38 16 93 11 117 -10z m466 -16 c31 -39
31 -57 -1 -43 -49 23 -72 5 -137 -106 -72 -123 -80 -132 -117 -119 -48 17 -41
51 33 174 36 60 74 114 83 120 9 6 39 9 66 7 40 -4 54 -10 73 -33z m-424 -56
c13 -18 50 -77 81 -130 58 -100 79 -117 126 -105 48 12 0 -49 -49 -64 -33 -10
-44 -9 -76 7 -31 16 -50 41 -106 137 -38 65 -69 125 -69 134 0 23 29 53 51 53
10 0 29 -15 42 -32z m427 -18 c18 -18 20 -33 20 -185 l0 -165 -50 0 -50 0 0
175 c0 155 2 175 18 184 25 15 40 13 62 -9z"/>
</g>
</svg>
